%TF.GenerationSoftware,KiCad,Pcbnew,(6.0.5)*%
%TF.CreationDate,2022-08-18T11:16:52+02:00*%
%TF.ProjectId,IRWaterSensorPCB,49525761-7465-4725-9365-6e736f725043,rev?*%
%TF.SameCoordinates,Original*%
%TF.FileFunction,Copper,L2,Bot*%
%TF.FilePolarity,Positive*%
%FSLAX46Y46*%
G04 Gerber Fmt 4.6, Leading zero omitted, Abs format (unit mm)*
G04 Created by KiCad (PCBNEW (6.0.5)) date 2022-08-18 11:16:52*
%MOMM*%
%LPD*%
G01*
G04 APERTURE LIST*
G04 Aperture macros list*
%AMRoundRect*
0 Rectangle with rounded corners*
0 $1 Rounding radius*
0 $2 $3 $4 $5 $6 $7 $8 $9 X,Y pos of 4 corners*
0 Add a 4 corners polygon primitive as box body*
4,1,4,$2,$3,$4,$5,$6,$7,$8,$9,$2,$3,0*
0 Add four circle primitives for the rounded corners*
1,1,$1+$1,$2,$3*
1,1,$1+$1,$4,$5*
1,1,$1+$1,$6,$7*
1,1,$1+$1,$8,$9*
0 Add four rect primitives between the rounded corners*
20,1,$1+$1,$2,$3,$4,$5,0*
20,1,$1+$1,$4,$5,$6,$7,0*
20,1,$1+$1,$6,$7,$8,$9,0*
20,1,$1+$1,$8,$9,$2,$3,0*%
G04 Aperture macros list end*
%TA.AperFunction,ComponentPad*%
%ADD10RoundRect,0.250000X-0.725000X0.600000X-0.725000X-0.600000X0.725000X-0.600000X0.725000X0.600000X0*%
%TD*%
%TA.AperFunction,ComponentPad*%
%ADD11O,1.950000X1.700000*%
%TD*%
%TA.AperFunction,ComponentPad*%
%ADD12R,1.800000X1.800000*%
%TD*%
%TA.AperFunction,ComponentPad*%
%ADD13C,1.800000*%
%TD*%
%TA.AperFunction,Conductor*%
%ADD14C,0.250000*%
%TD*%
G04 APERTURE END LIST*
D10*
%TO.P,J1,1,Pin_1*%
%TO.N,RESPONSE*%
X129540000Y-88900000D03*
D11*
%TO.P,J1,2,Pin_2*%
%TO.N,POWER*%
X129540000Y-91400000D03*
%TO.P,J1,3,Pin_3*%
%TO.N,Earth*%
X129540000Y-93900000D03*
%TO.P,J1,4,Pin_4*%
%TO.N,+3V3*%
X129540000Y-96400000D03*
%TD*%
D12*
%TO.P,Q1,1,C*%
%TO.N,+3V3*%
X144780000Y-91250000D03*
D13*
%TO.P,Q1,2,E*%
%TO.N,RESPONSE*%
X144780000Y-88710000D03*
%TD*%
D12*
%TO.P,D1,1,K*%
%TO.N,Net-(D1-Pad1)*%
X144780000Y-96520000D03*
D13*
%TO.P,D1,2,A*%
%TO.N,POWER*%
X144780000Y-93980000D03*
%TD*%
D14*
%TO.N,+3V3*%
X138404700Y-96400000D02*
X129540000Y-96400000D01*
X143554700Y-91250000D02*
X138404700Y-96400000D01*
X144780000Y-91250000D02*
X143554700Y-91250000D01*
%TD*%
%TA.AperFunction,Conductor*%
%TO.N,Earth*%
G36*
X147793621Y-85348502D02*
G01*
X147840114Y-85402158D01*
X147851500Y-85454500D01*
X147851500Y-99965500D01*
X147831498Y-100033621D01*
X147777842Y-100080114D01*
X147725500Y-100091500D01*
X125094500Y-100091500D01*
X125026379Y-100071498D01*
X124979886Y-100017842D01*
X124968500Y-99965500D01*
X124968500Y-96335774D01*
X128053102Y-96335774D01*
X128061751Y-96566158D01*
X128109093Y-96791791D01*
X128111051Y-96796750D01*
X128111052Y-96796752D01*
X128186671Y-96988229D01*
X128193776Y-97006221D01*
X128196543Y-97010780D01*
X128196544Y-97010783D01*
X128220789Y-97050737D01*
X128313377Y-97203317D01*
X128316874Y-97207347D01*
X128403438Y-97307103D01*
X128464477Y-97377445D01*
X128468608Y-97380832D01*
X128638627Y-97520240D01*
X128638633Y-97520244D01*
X128642755Y-97523624D01*
X128647391Y-97526263D01*
X128647394Y-97526265D01*
X128654511Y-97530316D01*
X128843114Y-97637675D01*
X129059825Y-97716337D01*
X129065074Y-97717286D01*
X129065077Y-97717287D01*
X129282608Y-97756623D01*
X129282615Y-97756624D01*
X129286692Y-97757361D01*
X129304414Y-97758197D01*
X129309356Y-97758430D01*
X129309363Y-97758430D01*
X129310844Y-97758500D01*
X129722890Y-97758500D01*
X129789809Y-97752822D01*
X129889409Y-97744371D01*
X129889413Y-97744370D01*
X129894720Y-97743920D01*
X129899875Y-97742582D01*
X129899881Y-97742581D01*
X130112703Y-97687343D01*
X130112707Y-97687342D01*
X130117872Y-97686001D01*
X130122738Y-97683809D01*
X130122741Y-97683808D01*
X130323202Y-97593507D01*
X130328075Y-97591312D01*
X130519319Y-97462559D01*
X130686135Y-97303424D01*
X130823754Y-97118458D01*
X130826170Y-97113706D01*
X130826175Y-97113698D01*
X130831922Y-97102394D01*
X130880625Y-97050737D01*
X130944238Y-97033500D01*
X138325933Y-97033500D01*
X138337116Y-97034027D01*
X138344609Y-97035702D01*
X138352535Y-97035453D01*
X138352536Y-97035453D01*
X138412686Y-97033562D01*
X138416645Y-97033500D01*
X138444556Y-97033500D01*
X138448491Y-97033003D01*
X138448556Y-97032995D01*
X138460393Y-97032062D01*
X138492651Y-97031048D01*
X138496670Y-97030922D01*
X138504589Y-97030673D01*
X138524043Y-97025021D01*
X138543400Y-97021013D01*
X138555630Y-97019468D01*
X138555631Y-97019468D01*
X138563497Y-97018474D01*
X138570868Y-97015555D01*
X138570870Y-97015555D01*
X138604612Y-97002196D01*
X138615842Y-96998351D01*
X138650683Y-96988229D01*
X138650684Y-96988229D01*
X138658293Y-96986018D01*
X138665112Y-96981985D01*
X138665117Y-96981983D01*
X138675728Y-96975707D01*
X138693476Y-96967012D01*
X138712317Y-96959552D01*
X138748087Y-96933564D01*
X138758007Y-96927048D01*
X138789235Y-96908580D01*
X138789238Y-96908578D01*
X138796062Y-96904542D01*
X138810383Y-96890221D01*
X138825417Y-96877380D01*
X138835394Y-96870131D01*
X138841807Y-96865472D01*
X138869998Y-96831395D01*
X138877988Y-96822616D01*
X143272864Y-92427741D01*
X143335176Y-92393715D01*
X143405992Y-92398780D01*
X143462785Y-92441271D01*
X143516739Y-92513261D01*
X143633295Y-92600615D01*
X143769684Y-92651745D01*
X143826446Y-92657911D01*
X143831120Y-92658419D01*
X143896682Y-92685661D01*
X143937108Y-92744024D01*
X143939563Y-92814978D01*
X143903268Y-92875996D01*
X143893165Y-92884442D01*
X143841655Y-92923117D01*
X143681639Y-93090564D01*
X143678725Y-93094836D01*
X143678724Y-93094837D01*
X143663152Y-93117665D01*
X143551119Y-93281899D01*
X143453602Y-93491981D01*
X143391707Y-93715169D01*
X143367095Y-93945469D01*
X143367392Y-93950622D01*
X143367392Y-93950625D01*
X143373067Y-94049041D01*
X143380427Y-94176697D01*
X143381564Y-94181743D01*
X143381565Y-94181749D01*
X143405154Y-94286421D01*
X143431346Y-94402642D01*
X143433288Y-94407424D01*
X143433289Y-94407428D01*
X143475167Y-94510561D01*
X143518484Y-94617237D01*
X143639501Y-94814719D01*
X143642882Y-94818622D01*
X143751304Y-94943788D01*
X143780786Y-95008373D01*
X143770671Y-95078646D01*
X143724170Y-95132294D01*
X143700296Y-95144267D01*
X143644515Y-95165179D01*
X143633295Y-95169385D01*
X143516739Y-95256739D01*
X143429385Y-95373295D01*
X143378255Y-95509684D01*
X143371500Y-95571866D01*
X143371500Y-97468134D01*
X143378255Y-97530316D01*
X143429385Y-97666705D01*
X143516739Y-97783261D01*
X143633295Y-97870615D01*
X143769684Y-97921745D01*
X143831866Y-97928500D01*
X145728134Y-97928500D01*
X145790316Y-97921745D01*
X145926705Y-97870615D01*
X146043261Y-97783261D01*
X146130615Y-97666705D01*
X146181745Y-97530316D01*
X146188500Y-97468134D01*
X146188500Y-95571866D01*
X146181745Y-95509684D01*
X146130615Y-95373295D01*
X146043261Y-95256739D01*
X145926705Y-95169385D01*
X145918296Y-95166233D01*
X145918295Y-95166232D01*
X145859804Y-95144305D01*
X145803039Y-95101664D01*
X145778339Y-95035103D01*
X145793546Y-94965754D01*
X145815093Y-94937073D01*
X145852636Y-94899660D01*
X145852640Y-94899655D01*
X145856303Y-94896005D01*
X145991458Y-94707917D01*
X146038641Y-94612450D01*
X146091784Y-94504922D01*
X146091785Y-94504920D01*
X146094078Y-94500280D01*
X146161408Y-94278671D01*
X146191640Y-94049041D01*
X146193327Y-93980000D01*
X146187032Y-93903434D01*
X146174773Y-93754318D01*
X146174772Y-93754312D01*
X146174349Y-93749167D01*
X146117925Y-93524533D01*
X146108729Y-93503383D01*
X146027630Y-93316868D01*
X146027628Y-93316865D01*
X146025570Y-93312131D01*
X145899764Y-93117665D01*
X145743887Y-92946358D01*
X145739836Y-92943159D01*
X145739832Y-92943155D01*
X145663240Y-92882667D01*
X145622177Y-92824750D01*
X145618945Y-92753827D01*
X145654570Y-92692415D01*
X145717741Y-92660013D01*
X145728161Y-92658746D01*
X145728134Y-92658500D01*
X145790316Y-92651745D01*
X145926705Y-92600615D01*
X146043261Y-92513261D01*
X146130615Y-92396705D01*
X146181745Y-92260316D01*
X146188500Y-92198134D01*
X146188500Y-90301866D01*
X146181745Y-90239684D01*
X146130615Y-90103295D01*
X146043261Y-89986739D01*
X145926705Y-89899385D01*
X145918296Y-89896233D01*
X145918295Y-89896232D01*
X145859804Y-89874305D01*
X145803039Y-89831664D01*
X145778339Y-89765103D01*
X145793546Y-89695754D01*
X145815093Y-89667073D01*
X145852636Y-89629660D01*
X145852640Y-89629655D01*
X145856303Y-89626005D01*
X145991458Y-89437917D01*
X146038641Y-89342450D01*
X146091784Y-89234922D01*
X146091785Y-89234920D01*
X146094078Y-89230280D01*
X146161408Y-89008671D01*
X146191640Y-88779041D01*
X146193327Y-88710000D01*
X146187032Y-88633434D01*
X146174773Y-88484318D01*
X146174772Y-88484312D01*
X146174349Y-88479167D01*
X146117925Y-88254533D01*
X146114367Y-88246350D01*
X146027630Y-88046868D01*
X146027628Y-88046865D01*
X146025570Y-88042131D01*
X145899764Y-87847665D01*
X145886355Y-87832928D01*
X145850134Y-87793122D01*
X145743887Y-87676358D01*
X145739836Y-87673159D01*
X145739832Y-87673155D01*
X145566177Y-87536011D01*
X145566172Y-87536008D01*
X145562123Y-87532810D01*
X145557607Y-87530317D01*
X145557604Y-87530315D01*
X145363879Y-87423373D01*
X145363875Y-87423371D01*
X145359355Y-87420876D01*
X145354486Y-87419152D01*
X145354482Y-87419150D01*
X145145903Y-87345288D01*
X145145899Y-87345287D01*
X145141028Y-87343562D01*
X145135935Y-87342655D01*
X145135932Y-87342654D01*
X144918095Y-87303851D01*
X144918089Y-87303850D01*
X144913006Y-87302945D01*
X144840096Y-87302054D01*
X144686581Y-87300179D01*
X144686579Y-87300179D01*
X144681411Y-87300116D01*
X144452464Y-87335150D01*
X144232314Y-87407106D01*
X144227726Y-87409494D01*
X144227722Y-87409496D01*
X144201065Y-87423373D01*
X144026872Y-87514052D01*
X144022739Y-87517155D01*
X144022736Y-87517157D01*
X143896010Y-87612306D01*
X143841655Y-87653117D01*
X143681639Y-87820564D01*
X143678725Y-87824836D01*
X143678724Y-87824837D01*
X143663152Y-87847665D01*
X143551119Y-88011899D01*
X143453602Y-88221981D01*
X143391707Y-88445169D01*
X143367095Y-88675469D01*
X143367392Y-88680622D01*
X143367392Y-88680625D01*
X143373067Y-88779041D01*
X143380427Y-88906697D01*
X143381564Y-88911743D01*
X143381565Y-88911749D01*
X143413741Y-89054523D01*
X143431346Y-89132642D01*
X143433288Y-89137424D01*
X143433289Y-89137428D01*
X143516540Y-89342450D01*
X143518484Y-89347237D01*
X143639501Y-89544719D01*
X143642882Y-89548622D01*
X143751304Y-89673788D01*
X143780786Y-89738373D01*
X143770671Y-89808646D01*
X143724170Y-89862294D01*
X143700296Y-89874267D01*
X143644515Y-89895179D01*
X143633295Y-89899385D01*
X143516739Y-89986739D01*
X143429385Y-90103295D01*
X143378255Y-90239684D01*
X143371500Y-90301866D01*
X143371500Y-90551836D01*
X143351498Y-90619957D01*
X143300622Y-90663160D01*
X143301108Y-90663981D01*
X143296324Y-90666810D01*
X143296321Y-90666812D01*
X143294284Y-90668017D01*
X143294282Y-90668018D01*
X143283672Y-90674293D01*
X143265924Y-90682988D01*
X143247083Y-90690448D01*
X143240667Y-90695110D01*
X143240666Y-90695110D01*
X143211313Y-90716436D01*
X143201393Y-90722952D01*
X143170165Y-90741420D01*
X143170162Y-90741422D01*
X143163338Y-90745458D01*
X143149017Y-90759779D01*
X143133984Y-90772619D01*
X143117593Y-90784528D01*
X143089402Y-90818605D01*
X143081412Y-90827384D01*
X138179200Y-95729595D01*
X138116888Y-95763621D01*
X138090105Y-95766500D01*
X130940596Y-95766500D01*
X130872475Y-95746498D01*
X130832877Y-95705866D01*
X130815519Y-95677260D01*
X130766623Y-95596683D01*
X130742140Y-95568469D01*
X130619023Y-95426588D01*
X130619021Y-95426586D01*
X130615523Y-95422555D01*
X130546682Y-95366109D01*
X130441373Y-95279760D01*
X130441367Y-95279756D01*
X130437245Y-95276376D01*
X130432602Y-95273733D01*
X130405265Y-95258171D01*
X130355959Y-95207088D01*
X130342098Y-95137458D01*
X130368082Y-95071387D01*
X130397232Y-95044149D01*
X130514578Y-94965148D01*
X130522870Y-94958481D01*
X130681900Y-94806772D01*
X130688941Y-94798814D01*
X130820141Y-94622475D01*
X130825745Y-94613438D01*
X130925357Y-94417516D01*
X130929357Y-94407665D01*
X130994534Y-94197760D01*
X130996817Y-94187376D01*
X130998861Y-94171957D01*
X130996665Y-94157793D01*
X130983478Y-94154000D01*
X128098808Y-94154000D01*
X128085277Y-94157973D01*
X128083752Y-94168580D01*
X128108477Y-94286421D01*
X128111537Y-94296617D01*
X128192263Y-94501029D01*
X128196994Y-94510561D01*
X128311016Y-94698462D01*
X128317280Y-94707052D01*
X128461327Y-94873052D01*
X128468958Y-94880472D01*
X128638911Y-95019826D01*
X128647674Y-95025848D01*
X128674711Y-95041238D01*
X128724018Y-95092320D01*
X128737880Y-95161951D01*
X128711897Y-95228022D01*
X128682747Y-95255261D01*
X128680552Y-95256739D01*
X128560681Y-95337441D01*
X128556824Y-95341120D01*
X128556822Y-95341122D01*
X128487464Y-95407287D01*
X128393865Y-95496576D01*
X128256246Y-95681542D01*
X128253830Y-95686293D01*
X128253828Y-95686297D01*
X128223221Y-95746498D01*
X128151760Y-95887051D01*
X128083393Y-96107227D01*
X128053102Y-96335774D01*
X124968500Y-96335774D01*
X124968500Y-91335774D01*
X128053102Y-91335774D01*
X128061751Y-91566158D01*
X128109093Y-91791791D01*
X128193776Y-92006221D01*
X128313377Y-92203317D01*
X128316874Y-92207347D01*
X128403438Y-92307103D01*
X128464477Y-92377445D01*
X128468608Y-92380832D01*
X128638627Y-92520240D01*
X128638633Y-92520244D01*
X128642755Y-92523624D01*
X128647398Y-92526267D01*
X128674735Y-92541829D01*
X128724041Y-92592912D01*
X128737902Y-92662542D01*
X128711918Y-92728613D01*
X128682768Y-92755851D01*
X128565422Y-92834852D01*
X128557130Y-92841519D01*
X128398100Y-92993228D01*
X128391059Y-93001186D01*
X128259859Y-93177525D01*
X128254255Y-93186562D01*
X128154643Y-93382484D01*
X128150643Y-93392335D01*
X128085466Y-93602240D01*
X128083183Y-93612624D01*
X128081139Y-93628043D01*
X128083335Y-93642207D01*
X128096522Y-93646000D01*
X130981192Y-93646000D01*
X130994723Y-93642027D01*
X130996248Y-93631420D01*
X130971523Y-93513579D01*
X130968463Y-93503383D01*
X130887737Y-93298971D01*
X130883006Y-93289439D01*
X130768984Y-93101538D01*
X130762720Y-93092948D01*
X130618673Y-92926948D01*
X130611042Y-92919528D01*
X130441089Y-92780174D01*
X130432326Y-92774152D01*
X130405289Y-92758762D01*
X130355982Y-92707680D01*
X130342120Y-92638049D01*
X130368103Y-92571978D01*
X130397253Y-92544739D01*
X130454675Y-92506080D01*
X130519319Y-92462559D01*
X130686135Y-92303424D01*
X130823754Y-92118458D01*
X130928240Y-91912949D01*
X130964321Y-91796752D01*
X130995024Y-91697871D01*
X130996607Y-91692773D01*
X130997308Y-91687484D01*
X131026198Y-91469511D01*
X131026198Y-91469506D01*
X131026898Y-91464226D01*
X131018249Y-91233842D01*
X130970907Y-91008209D01*
X130921181Y-90882296D01*
X130888185Y-90798744D01*
X130888184Y-90798742D01*
X130886224Y-90793779D01*
X130880611Y-90784528D01*
X130769390Y-90601243D01*
X130766623Y-90596683D01*
X130679755Y-90496576D01*
X130619023Y-90426588D01*
X130619021Y-90426586D01*
X130615523Y-90422555D01*
X130579880Y-90393330D01*
X130539886Y-90334671D01*
X130537954Y-90263701D01*
X130574698Y-90202952D01*
X130593468Y-90188752D01*
X130733120Y-90102332D01*
X130739348Y-90098478D01*
X130864305Y-89973303D01*
X130911812Y-89896233D01*
X130953275Y-89828968D01*
X130953276Y-89828966D01*
X130957115Y-89822738D01*
X130991263Y-89719784D01*
X131010632Y-89661389D01*
X131010632Y-89661387D01*
X131012797Y-89654861D01*
X131023500Y-89550400D01*
X131023500Y-88249600D01*
X131023163Y-88246350D01*
X131013238Y-88150692D01*
X131013237Y-88150688D01*
X131012526Y-88143834D01*
X130980176Y-88046868D01*
X130958868Y-87983002D01*
X130956550Y-87976054D01*
X130863478Y-87825652D01*
X130738303Y-87700695D01*
X130732072Y-87696854D01*
X130593968Y-87611725D01*
X130593966Y-87611724D01*
X130587738Y-87607885D01*
X130427254Y-87554655D01*
X130426389Y-87554368D01*
X130426387Y-87554368D01*
X130419861Y-87552203D01*
X130413025Y-87551503D01*
X130413022Y-87551502D01*
X130369969Y-87547091D01*
X130315400Y-87541500D01*
X128764600Y-87541500D01*
X128761354Y-87541837D01*
X128761350Y-87541837D01*
X128665692Y-87551762D01*
X128665688Y-87551763D01*
X128658834Y-87552474D01*
X128652298Y-87554655D01*
X128652296Y-87554655D01*
X128520194Y-87598728D01*
X128491054Y-87608450D01*
X128340652Y-87701522D01*
X128215695Y-87826697D01*
X128122885Y-87977262D01*
X128067203Y-88145139D01*
X128056500Y-88249600D01*
X128056500Y-89550400D01*
X128056837Y-89553646D01*
X128056837Y-89553650D01*
X128064724Y-89629660D01*
X128067474Y-89656166D01*
X128069655Y-89662702D01*
X128069655Y-89662704D01*
X128103818Y-89765103D01*
X128123450Y-89823946D01*
X128216522Y-89974348D01*
X128341697Y-90099305D01*
X128487340Y-90189081D01*
X128534832Y-90241852D01*
X128546256Y-90311924D01*
X128517982Y-90377048D01*
X128508195Y-90387510D01*
X128393865Y-90496576D01*
X128256246Y-90681542D01*
X128253830Y-90686293D01*
X128253828Y-90686297D01*
X128223749Y-90745458D01*
X128151760Y-90887051D01*
X128150178Y-90892145D01*
X128150177Y-90892148D01*
X128088115Y-91092020D01*
X128083393Y-91107227D01*
X128082692Y-91112516D01*
X128067304Y-91228623D01*
X128053102Y-91335774D01*
X124968500Y-91335774D01*
X124968500Y-85454500D01*
X124988502Y-85386379D01*
X125042158Y-85339886D01*
X125094500Y-85328500D01*
X147725500Y-85328500D01*
X147793621Y-85348502D01*
G37*
%TD.AperFunction*%
%TD*%
M02*
