%TF.GenerationSoftware,KiCad,Pcbnew,(6.0.5)*%
%TF.CreationDate,2022-08-18T11:16:50+02:00*%
%TF.ProjectId,IRWaterSensorPCB,49525761-7465-4725-9365-6e736f725043,rev?*%
%TF.SameCoordinates,Original*%
%TF.FileFunction,Copper,L1,Top*%
%TF.FilePolarity,Positive*%
%FSLAX46Y46*%
G04 Gerber Fmt 4.6, Leading zero omitted, Abs format (unit mm)*
G04 Created by KiCad (PCBNEW (6.0.5)) date 2022-08-18 11:16:50*
%MOMM*%
%LPD*%
G01*
G04 APERTURE LIST*
G04 Aperture macros list*
%AMRoundRect*
0 Rectangle with rounded corners*
0 $1 Rounding radius*
0 $2 $3 $4 $5 $6 $7 $8 $9 X,Y pos of 4 corners*
0 Add a 4 corners polygon primitive as box body*
4,1,4,$2,$3,$4,$5,$6,$7,$8,$9,$2,$3,0*
0 Add four circle primitives for the rounded corners*
1,1,$1+$1,$2,$3*
1,1,$1+$1,$4,$5*
1,1,$1+$1,$6,$7*
1,1,$1+$1,$8,$9*
0 Add four rect primitives between the rounded corners*
20,1,$1+$1,$2,$3,$4,$5,0*
20,1,$1+$1,$4,$5,$6,$7,0*
20,1,$1+$1,$6,$7,$8,$9,0*
20,1,$1+$1,$8,$9,$2,$3,0*%
G04 Aperture macros list end*
%TA.AperFunction,ComponentPad*%
%ADD10RoundRect,0.250000X-0.725000X0.600000X-0.725000X-0.600000X0.725000X-0.600000X0.725000X0.600000X0*%
%TD*%
%TA.AperFunction,ComponentPad*%
%ADD11O,1.950000X1.700000*%
%TD*%
%TA.AperFunction,SMDPad,CuDef*%
%ADD12RoundRect,0.250000X-0.400000X-0.625000X0.400000X-0.625000X0.400000X0.625000X-0.400000X0.625000X0*%
%TD*%
%TA.AperFunction,ComponentPad*%
%ADD13R,1.800000X1.800000*%
%TD*%
%TA.AperFunction,ComponentPad*%
%ADD14C,1.800000*%
%TD*%
%TA.AperFunction,Conductor*%
%ADD15C,0.250000*%
%TD*%
G04 APERTURE END LIST*
D10*
%TO.P,J1,1,Pin_1*%
%TO.N,RESPONSE*%
X129540000Y-88900000D03*
D11*
%TO.P,J1,2,Pin_2*%
%TO.N,POWER*%
X129540000Y-91400000D03*
%TO.P,J1,3,Pin_3*%
%TO.N,Earth*%
X129540000Y-93900000D03*
%TO.P,J1,4,Pin_4*%
%TO.N,+3V3*%
X129540000Y-96400000D03*
%TD*%
D12*
%TO.P,R2,1*%
%TO.N,RESPONSE*%
X135450000Y-88900000D03*
%TO.P,R2,2*%
%TO.N,Earth*%
X138550000Y-88900000D03*
%TD*%
%TO.P,R1,1*%
%TO.N,Net-(D1-Pad1)*%
X135200000Y-96520000D03*
%TO.P,R1,2*%
%TO.N,Earth*%
X138300000Y-96520000D03*
%TD*%
D13*
%TO.P,Q1,1,C*%
%TO.N,+3V3*%
X144780000Y-91250000D03*
D14*
%TO.P,Q1,2,E*%
%TO.N,RESPONSE*%
X144780000Y-88710000D03*
%TD*%
D13*
%TO.P,D1,1,K*%
%TO.N,Net-(D1-Pad1)*%
X144780000Y-96520000D03*
D14*
%TO.P,D1,2,A*%
%TO.N,POWER*%
X144780000Y-93980000D03*
%TD*%
D15*
%TO.N,RESPONSE*%
X136677000Y-90127000D02*
X135450000Y-88900000D01*
X143363000Y-90127000D02*
X136677000Y-90127000D01*
X144780000Y-88710000D02*
X143363000Y-90127000D01*
X135450000Y-88900000D02*
X129540000Y-88900000D01*
%TO.N,POWER*%
X142200000Y-91400000D02*
X129540000Y-91400000D01*
X144780000Y-93980000D02*
X142200000Y-91400000D01*
%TO.N,Net-(D1-Pad1)*%
X136441900Y-97761900D02*
X135200000Y-96520000D01*
X142312800Y-97761900D02*
X136441900Y-97761900D01*
X143554700Y-96520000D02*
X142312800Y-97761900D01*
X144780000Y-96520000D02*
X143554700Y-96520000D01*
%TD*%
%TA.AperFunction,Conductor*%
%TO.N,Earth*%
G36*
X147793621Y-85348502D02*
G01*
X147840114Y-85402158D01*
X147851500Y-85454500D01*
X147851500Y-99965500D01*
X147831498Y-100033621D01*
X147777842Y-100080114D01*
X147725500Y-100091500D01*
X125094500Y-100091500D01*
X125026379Y-100071498D01*
X124979886Y-100017842D01*
X124968500Y-99965500D01*
X124968500Y-96335774D01*
X128053102Y-96335774D01*
X128061751Y-96566158D01*
X128109093Y-96791791D01*
X128193776Y-97006221D01*
X128196543Y-97010780D01*
X128196544Y-97010783D01*
X128255779Y-97108398D01*
X128313377Y-97203317D01*
X128316874Y-97207347D01*
X128403438Y-97307103D01*
X128464477Y-97377445D01*
X128468608Y-97380832D01*
X128638627Y-97520240D01*
X128638633Y-97520244D01*
X128642755Y-97523624D01*
X128647391Y-97526263D01*
X128647394Y-97526265D01*
X128654511Y-97530316D01*
X128843114Y-97637675D01*
X129059825Y-97716337D01*
X129065074Y-97717286D01*
X129065077Y-97717287D01*
X129282608Y-97756623D01*
X129282615Y-97756624D01*
X129286692Y-97757361D01*
X129304414Y-97758197D01*
X129309356Y-97758430D01*
X129309363Y-97758430D01*
X129310844Y-97758500D01*
X129722890Y-97758500D01*
X129789809Y-97752822D01*
X129889409Y-97744371D01*
X129889413Y-97744370D01*
X129894720Y-97743920D01*
X129899875Y-97742582D01*
X129899881Y-97742581D01*
X130112703Y-97687343D01*
X130112707Y-97687342D01*
X130117872Y-97686001D01*
X130122738Y-97683809D01*
X130122741Y-97683808D01*
X130323202Y-97593507D01*
X130328075Y-97591312D01*
X130519319Y-97462559D01*
X130686135Y-97303424D01*
X130823754Y-97118458D01*
X130848127Y-97070521D01*
X130925822Y-96917704D01*
X130928240Y-96912949D01*
X130964321Y-96796752D01*
X130995024Y-96697871D01*
X130996607Y-96692773D01*
X130997308Y-96687484D01*
X131026198Y-96469511D01*
X131026198Y-96469506D01*
X131026898Y-96464226D01*
X131018249Y-96233842D01*
X130970907Y-96008209D01*
X130963687Y-95989927D01*
X130888185Y-95798744D01*
X130888184Y-95798742D01*
X130886224Y-95793779D01*
X130857825Y-95746978D01*
X130769390Y-95601243D01*
X130766623Y-95596683D01*
X130763126Y-95592653D01*
X130619023Y-95426588D01*
X130619021Y-95426586D01*
X130615523Y-95422555D01*
X130546682Y-95366109D01*
X130441373Y-95279760D01*
X130441367Y-95279756D01*
X130437245Y-95276376D01*
X130432602Y-95273733D01*
X130405265Y-95258171D01*
X130355959Y-95207088D01*
X130342098Y-95137458D01*
X130368082Y-95071387D01*
X130397232Y-95044149D01*
X130514578Y-94965148D01*
X130522870Y-94958481D01*
X130681900Y-94806772D01*
X130688941Y-94798814D01*
X130820141Y-94622475D01*
X130825745Y-94613438D01*
X130925357Y-94417516D01*
X130929357Y-94407665D01*
X130994534Y-94197760D01*
X130996817Y-94187376D01*
X130998861Y-94171957D01*
X130996665Y-94157793D01*
X130983478Y-94154000D01*
X128098808Y-94154000D01*
X128085277Y-94157973D01*
X128083752Y-94168580D01*
X128108477Y-94286421D01*
X128111537Y-94296617D01*
X128192263Y-94501029D01*
X128196994Y-94510561D01*
X128311016Y-94698462D01*
X128317280Y-94707052D01*
X128461327Y-94873052D01*
X128468958Y-94880472D01*
X128638911Y-95019826D01*
X128647674Y-95025848D01*
X128674711Y-95041238D01*
X128724018Y-95092320D01*
X128737880Y-95161951D01*
X128711897Y-95228022D01*
X128682747Y-95255261D01*
X128680552Y-95256739D01*
X128560681Y-95337441D01*
X128556824Y-95341120D01*
X128556822Y-95341122D01*
X128487464Y-95407287D01*
X128393865Y-95496576D01*
X128256246Y-95681542D01*
X128253830Y-95686293D01*
X128253828Y-95686297D01*
X128222977Y-95746978D01*
X128151760Y-95887051D01*
X128150178Y-95892145D01*
X128150177Y-95892148D01*
X128103454Y-96042620D01*
X128083393Y-96107227D01*
X128082692Y-96112516D01*
X128062350Y-96266000D01*
X128053102Y-96335774D01*
X124968500Y-96335774D01*
X124968500Y-91335774D01*
X128053102Y-91335774D01*
X128061751Y-91566158D01*
X128109093Y-91791791D01*
X128193776Y-92006221D01*
X128313377Y-92203317D01*
X128316874Y-92207347D01*
X128403438Y-92307103D01*
X128464477Y-92377445D01*
X128468608Y-92380832D01*
X128638627Y-92520240D01*
X128638633Y-92520244D01*
X128642755Y-92523624D01*
X128647398Y-92526267D01*
X128674735Y-92541829D01*
X128724041Y-92592912D01*
X128737902Y-92662542D01*
X128711918Y-92728613D01*
X128682768Y-92755851D01*
X128565422Y-92834852D01*
X128557130Y-92841519D01*
X128398100Y-92993228D01*
X128391059Y-93001186D01*
X128259859Y-93177525D01*
X128254255Y-93186562D01*
X128154643Y-93382484D01*
X128150643Y-93392335D01*
X128085466Y-93602240D01*
X128083183Y-93612624D01*
X128081139Y-93628043D01*
X128083335Y-93642207D01*
X128096522Y-93646000D01*
X130981192Y-93646000D01*
X130994723Y-93642027D01*
X130996248Y-93631420D01*
X130971523Y-93513579D01*
X130968463Y-93503383D01*
X130887737Y-93298971D01*
X130883006Y-93289439D01*
X130768984Y-93101538D01*
X130762720Y-93092948D01*
X130618673Y-92926948D01*
X130611042Y-92919528D01*
X130441089Y-92780174D01*
X130432326Y-92774152D01*
X130405289Y-92758762D01*
X130355982Y-92707680D01*
X130342120Y-92638049D01*
X130368103Y-92571978D01*
X130397253Y-92544739D01*
X130454673Y-92506081D01*
X130519319Y-92462559D01*
X130686135Y-92303424D01*
X130823754Y-92118458D01*
X130826170Y-92113706D01*
X130826175Y-92113698D01*
X130831922Y-92102394D01*
X130880625Y-92050737D01*
X130944238Y-92033500D01*
X141885406Y-92033500D01*
X141953527Y-92053502D01*
X141974501Y-92070405D01*
X143389153Y-93485058D01*
X143423179Y-93547370D01*
X143421476Y-93607823D01*
X143391707Y-93715169D01*
X143367095Y-93945469D01*
X143367392Y-93950622D01*
X143367392Y-93950625D01*
X143373067Y-94049041D01*
X143380427Y-94176697D01*
X143381564Y-94181743D01*
X143381565Y-94181749D01*
X143405154Y-94286421D01*
X143431346Y-94402642D01*
X143433288Y-94407424D01*
X143433289Y-94407428D01*
X143475167Y-94510561D01*
X143518484Y-94617237D01*
X143639501Y-94814719D01*
X143642882Y-94818622D01*
X143751304Y-94943788D01*
X143780786Y-95008373D01*
X143770671Y-95078646D01*
X143724170Y-95132294D01*
X143700296Y-95144267D01*
X143644515Y-95165179D01*
X143633295Y-95169385D01*
X143516739Y-95256739D01*
X143429385Y-95373295D01*
X143378255Y-95509684D01*
X143371500Y-95571866D01*
X143371500Y-95821836D01*
X143351498Y-95889957D01*
X143300622Y-95933160D01*
X143301108Y-95933981D01*
X143296324Y-95936810D01*
X143296321Y-95936812D01*
X143294284Y-95938017D01*
X143294282Y-95938018D01*
X143283672Y-95944293D01*
X143265924Y-95952988D01*
X143247083Y-95960448D01*
X143240667Y-95965110D01*
X143240666Y-95965110D01*
X143211313Y-95986436D01*
X143201393Y-95992952D01*
X143170165Y-96011420D01*
X143170162Y-96011422D01*
X143163338Y-96015458D01*
X143149017Y-96029779D01*
X143133984Y-96042619D01*
X143117593Y-96054528D01*
X143112542Y-96060634D01*
X143089402Y-96088605D01*
X143081412Y-96097384D01*
X142087300Y-97091495D01*
X142024988Y-97125521D01*
X141998205Y-97128400D01*
X139584000Y-97128400D01*
X139515879Y-97108398D01*
X139469386Y-97054742D01*
X139458000Y-97002400D01*
X139458000Y-96792115D01*
X139453525Y-96776876D01*
X139452135Y-96775671D01*
X139444452Y-96774000D01*
X137160116Y-96774000D01*
X137144877Y-96778475D01*
X137143672Y-96779865D01*
X137142001Y-96787548D01*
X137142001Y-97002400D01*
X137121999Y-97070521D01*
X137068343Y-97117014D01*
X137016001Y-97128400D01*
X136756494Y-97128400D01*
X136688373Y-97108398D01*
X136667399Y-97091495D01*
X136395405Y-96819501D01*
X136361379Y-96757189D01*
X136358500Y-96730406D01*
X136358500Y-96247885D01*
X137142000Y-96247885D01*
X137146475Y-96263124D01*
X137147865Y-96264329D01*
X137155548Y-96266000D01*
X138027885Y-96266000D01*
X138043124Y-96261525D01*
X138044329Y-96260135D01*
X138046000Y-96252452D01*
X138046000Y-96247885D01*
X138554000Y-96247885D01*
X138558475Y-96263124D01*
X138559865Y-96264329D01*
X138567548Y-96266000D01*
X139439884Y-96266000D01*
X139455123Y-96261525D01*
X139456328Y-96260135D01*
X139457999Y-96252452D01*
X139457999Y-95847905D01*
X139457662Y-95841386D01*
X139447743Y-95745794D01*
X139444851Y-95732400D01*
X139393412Y-95578216D01*
X139387239Y-95565038D01*
X139301937Y-95427193D01*
X139292901Y-95415792D01*
X139178171Y-95301261D01*
X139166760Y-95292249D01*
X139028757Y-95207184D01*
X139015576Y-95201037D01*
X138861290Y-95149862D01*
X138847914Y-95146995D01*
X138753562Y-95137328D01*
X138747145Y-95137000D01*
X138572115Y-95137000D01*
X138556876Y-95141475D01*
X138555671Y-95142865D01*
X138554000Y-95150548D01*
X138554000Y-96247885D01*
X138046000Y-96247885D01*
X138046000Y-95155116D01*
X138041525Y-95139877D01*
X138040135Y-95138672D01*
X138032452Y-95137001D01*
X137852905Y-95137001D01*
X137846386Y-95137338D01*
X137750794Y-95147257D01*
X137737400Y-95150149D01*
X137583216Y-95201588D01*
X137570038Y-95207761D01*
X137432193Y-95293063D01*
X137420792Y-95302099D01*
X137306261Y-95416829D01*
X137297249Y-95428240D01*
X137212184Y-95566243D01*
X137206037Y-95579424D01*
X137154862Y-95733710D01*
X137151995Y-95747086D01*
X137142328Y-95841438D01*
X137142000Y-95847855D01*
X137142000Y-96247885D01*
X136358500Y-96247885D01*
X136358500Y-95844600D01*
X136352754Y-95789217D01*
X136348238Y-95745692D01*
X136348237Y-95745688D01*
X136347526Y-95738834D01*
X136291550Y-95571054D01*
X136198478Y-95420652D01*
X136073303Y-95295695D01*
X136010105Y-95256739D01*
X135928968Y-95206725D01*
X135928966Y-95206724D01*
X135922738Y-95202885D01*
X135799325Y-95161951D01*
X135761389Y-95149368D01*
X135761387Y-95149368D01*
X135754861Y-95147203D01*
X135748025Y-95146503D01*
X135748022Y-95146502D01*
X135704969Y-95142091D01*
X135650400Y-95136500D01*
X134749600Y-95136500D01*
X134746354Y-95136837D01*
X134746350Y-95136837D01*
X134650692Y-95146762D01*
X134650688Y-95146763D01*
X134643834Y-95147474D01*
X134637298Y-95149655D01*
X134637296Y-95149655D01*
X134578159Y-95169385D01*
X134476054Y-95203450D01*
X134325652Y-95296522D01*
X134200695Y-95421697D01*
X134196855Y-95427927D01*
X134196854Y-95427928D01*
X134151020Y-95502285D01*
X134107885Y-95572262D01*
X134052203Y-95740139D01*
X134051503Y-95746975D01*
X134051502Y-95746978D01*
X134047091Y-95790031D01*
X134041500Y-95844600D01*
X134041500Y-97195400D01*
X134041837Y-97198646D01*
X134041837Y-97198650D01*
X134042740Y-97207347D01*
X134052474Y-97301166D01*
X134108450Y-97468946D01*
X134201522Y-97619348D01*
X134326697Y-97744305D01*
X134332927Y-97748145D01*
X134332928Y-97748146D01*
X134398625Y-97788642D01*
X134477262Y-97837115D01*
X134557005Y-97863564D01*
X134638611Y-97890632D01*
X134638613Y-97890632D01*
X134645139Y-97892797D01*
X134651975Y-97893497D01*
X134651978Y-97893498D01*
X134695031Y-97897909D01*
X134749600Y-97903500D01*
X135635405Y-97903500D01*
X135703526Y-97923502D01*
X135724500Y-97940405D01*
X135938248Y-98154153D01*
X135945788Y-98162439D01*
X135949900Y-98168918D01*
X135955677Y-98174343D01*
X135999551Y-98215543D01*
X136002393Y-98218298D01*
X136022130Y-98238035D01*
X136025327Y-98240515D01*
X136034347Y-98248218D01*
X136066579Y-98278486D01*
X136073525Y-98282305D01*
X136073528Y-98282307D01*
X136084334Y-98288248D01*
X136100853Y-98299099D01*
X136116859Y-98311514D01*
X136124128Y-98314659D01*
X136124132Y-98314662D01*
X136157437Y-98329074D01*
X136168087Y-98334291D01*
X136206840Y-98355595D01*
X136214515Y-98357566D01*
X136214516Y-98357566D01*
X136226462Y-98360633D01*
X136245167Y-98367037D01*
X136263755Y-98375081D01*
X136271578Y-98376320D01*
X136271588Y-98376323D01*
X136307424Y-98381999D01*
X136319044Y-98384405D01*
X136350859Y-98392573D01*
X136361870Y-98395400D01*
X136382124Y-98395400D01*
X136401834Y-98396951D01*
X136421843Y-98400120D01*
X136429735Y-98399374D01*
X136448480Y-98397602D01*
X136465862Y-98395959D01*
X136477719Y-98395400D01*
X142234033Y-98395400D01*
X142245216Y-98395927D01*
X142252709Y-98397602D01*
X142260635Y-98397353D01*
X142260636Y-98397353D01*
X142320786Y-98395462D01*
X142324745Y-98395400D01*
X142352656Y-98395400D01*
X142356591Y-98394903D01*
X142356656Y-98394895D01*
X142368493Y-98393962D01*
X142400751Y-98392948D01*
X142404770Y-98392822D01*
X142412689Y-98392573D01*
X142432143Y-98386921D01*
X142451500Y-98382913D01*
X142463730Y-98381368D01*
X142463731Y-98381368D01*
X142471597Y-98380374D01*
X142478968Y-98377455D01*
X142478970Y-98377455D01*
X142512712Y-98364096D01*
X142523942Y-98360251D01*
X142558783Y-98350129D01*
X142558784Y-98350129D01*
X142566393Y-98347918D01*
X142573212Y-98343885D01*
X142573217Y-98343883D01*
X142583828Y-98337607D01*
X142601576Y-98328912D01*
X142620417Y-98321452D01*
X142656187Y-98295464D01*
X142666107Y-98288948D01*
X142697335Y-98270480D01*
X142697338Y-98270478D01*
X142704162Y-98266442D01*
X142718483Y-98252121D01*
X142733517Y-98239280D01*
X142743494Y-98232031D01*
X142749907Y-98227372D01*
X142778098Y-98193295D01*
X142786088Y-98184516D01*
X143272864Y-97697740D01*
X143335176Y-97663714D01*
X143405991Y-97668779D01*
X143462784Y-97711269D01*
X143516739Y-97783261D01*
X143633295Y-97870615D01*
X143769684Y-97921745D01*
X143831866Y-97928500D01*
X145728134Y-97928500D01*
X145790316Y-97921745D01*
X145926705Y-97870615D01*
X146043261Y-97783261D01*
X146130615Y-97666705D01*
X146181745Y-97530316D01*
X146188500Y-97468134D01*
X146188500Y-95571866D01*
X146181745Y-95509684D01*
X146130615Y-95373295D01*
X146043261Y-95256739D01*
X145926705Y-95169385D01*
X145918296Y-95166233D01*
X145918295Y-95166232D01*
X145875393Y-95150149D01*
X145859804Y-95144305D01*
X145803039Y-95101664D01*
X145778339Y-95035103D01*
X145793546Y-94965754D01*
X145815093Y-94937073D01*
X145852636Y-94899660D01*
X145852640Y-94899655D01*
X145856303Y-94896005D01*
X145991458Y-94707917D01*
X146038641Y-94612450D01*
X146091784Y-94504922D01*
X146091785Y-94504920D01*
X146094078Y-94500280D01*
X146161408Y-94278671D01*
X146191640Y-94049041D01*
X146193327Y-93980000D01*
X146187032Y-93903434D01*
X146174773Y-93754318D01*
X146174772Y-93754312D01*
X146174349Y-93749167D01*
X146140052Y-93612624D01*
X146119184Y-93529544D01*
X146119183Y-93529540D01*
X146117925Y-93524533D01*
X146060444Y-93392335D01*
X146027630Y-93316868D01*
X146027628Y-93316865D01*
X146025570Y-93312131D01*
X145899764Y-93117665D01*
X145743887Y-92946358D01*
X145739836Y-92943159D01*
X145739832Y-92943155D01*
X145663240Y-92882667D01*
X145622177Y-92824750D01*
X145618945Y-92753827D01*
X145654570Y-92692415D01*
X145717741Y-92660013D01*
X145728161Y-92658746D01*
X145728134Y-92658500D01*
X145790316Y-92651745D01*
X145926705Y-92600615D01*
X146043261Y-92513261D01*
X146130615Y-92396705D01*
X146181745Y-92260316D01*
X146188500Y-92198134D01*
X146188500Y-90301866D01*
X146181745Y-90239684D01*
X146130615Y-90103295D01*
X146043261Y-89986739D01*
X145926705Y-89899385D01*
X145918296Y-89896233D01*
X145918295Y-89896232D01*
X145859804Y-89874305D01*
X145803039Y-89831664D01*
X145778339Y-89765103D01*
X145793546Y-89695754D01*
X145815093Y-89667073D01*
X145852636Y-89629660D01*
X145852640Y-89629655D01*
X145856303Y-89626005D01*
X145991458Y-89437917D01*
X146094078Y-89230280D01*
X146161408Y-89008671D01*
X146191640Y-88779041D01*
X146193327Y-88710000D01*
X146186576Y-88627885D01*
X146174773Y-88484318D01*
X146174772Y-88484312D01*
X146174349Y-88479167D01*
X146117925Y-88254533D01*
X146115780Y-88249600D01*
X146027630Y-88046868D01*
X146027628Y-88046865D01*
X146025570Y-88042131D01*
X145899764Y-87847665D01*
X145886355Y-87832928D01*
X145850134Y-87793122D01*
X145743887Y-87676358D01*
X145739836Y-87673159D01*
X145739832Y-87673155D01*
X145566177Y-87536011D01*
X145566172Y-87536008D01*
X145562123Y-87532810D01*
X145557607Y-87530317D01*
X145557604Y-87530315D01*
X145363879Y-87423373D01*
X145363875Y-87423371D01*
X145359355Y-87420876D01*
X145354486Y-87419152D01*
X145354482Y-87419150D01*
X145145903Y-87345288D01*
X145145899Y-87345287D01*
X145141028Y-87343562D01*
X145135935Y-87342655D01*
X145135932Y-87342654D01*
X144918095Y-87303851D01*
X144918089Y-87303850D01*
X144913006Y-87302945D01*
X144840096Y-87302054D01*
X144686581Y-87300179D01*
X144686579Y-87300179D01*
X144681411Y-87300116D01*
X144452464Y-87335150D01*
X144232314Y-87407106D01*
X144227726Y-87409494D01*
X144227722Y-87409496D01*
X144201065Y-87423373D01*
X144026872Y-87514052D01*
X144022739Y-87517155D01*
X144022736Y-87517157D01*
X143896010Y-87612306D01*
X143841655Y-87653117D01*
X143814760Y-87681261D01*
X143694417Y-87807193D01*
X143681639Y-87820564D01*
X143678725Y-87824836D01*
X143678724Y-87824837D01*
X143663152Y-87847665D01*
X143551119Y-88011899D01*
X143453602Y-88221981D01*
X143391707Y-88445169D01*
X143367095Y-88675469D01*
X143367392Y-88680622D01*
X143367392Y-88680625D01*
X143373067Y-88779041D01*
X143380427Y-88906697D01*
X143381564Y-88911743D01*
X143381565Y-88911749D01*
X143421623Y-89089498D01*
X143417087Y-89160350D01*
X143387801Y-89206295D01*
X143137499Y-89456596D01*
X143075187Y-89490621D01*
X143048404Y-89493500D01*
X139834000Y-89493500D01*
X139765879Y-89473498D01*
X139719386Y-89419842D01*
X139708000Y-89367500D01*
X139708000Y-89172115D01*
X139703525Y-89156876D01*
X139702135Y-89155671D01*
X139694452Y-89154000D01*
X137410116Y-89154000D01*
X137394877Y-89158475D01*
X137393672Y-89159865D01*
X137392001Y-89167548D01*
X137392001Y-89367500D01*
X137371999Y-89435621D01*
X137318343Y-89482114D01*
X137266001Y-89493500D01*
X136991594Y-89493500D01*
X136923473Y-89473498D01*
X136902499Y-89456595D01*
X136645405Y-89199501D01*
X136611379Y-89137189D01*
X136608500Y-89110406D01*
X136608500Y-88627885D01*
X137392000Y-88627885D01*
X137396475Y-88643124D01*
X137397865Y-88644329D01*
X137405548Y-88646000D01*
X138277885Y-88646000D01*
X138293124Y-88641525D01*
X138294329Y-88640135D01*
X138296000Y-88632452D01*
X138296000Y-88627885D01*
X138804000Y-88627885D01*
X138808475Y-88643124D01*
X138809865Y-88644329D01*
X138817548Y-88646000D01*
X139689884Y-88646000D01*
X139705123Y-88641525D01*
X139706328Y-88640135D01*
X139707999Y-88632452D01*
X139707999Y-88227905D01*
X139707662Y-88221386D01*
X139697743Y-88125794D01*
X139694851Y-88112400D01*
X139643412Y-87958216D01*
X139637239Y-87945038D01*
X139551937Y-87807193D01*
X139542901Y-87795792D01*
X139428171Y-87681261D01*
X139416760Y-87672249D01*
X139278757Y-87587184D01*
X139265576Y-87581037D01*
X139111290Y-87529862D01*
X139097914Y-87526995D01*
X139003562Y-87517328D01*
X138997145Y-87517000D01*
X138822115Y-87517000D01*
X138806876Y-87521475D01*
X138805671Y-87522865D01*
X138804000Y-87530548D01*
X138804000Y-88627885D01*
X138296000Y-88627885D01*
X138296000Y-87535116D01*
X138291525Y-87519877D01*
X138290135Y-87518672D01*
X138282452Y-87517001D01*
X138102905Y-87517001D01*
X138096386Y-87517338D01*
X138000794Y-87527257D01*
X137987400Y-87530149D01*
X137833216Y-87581588D01*
X137820038Y-87587761D01*
X137682193Y-87673063D01*
X137670792Y-87682099D01*
X137556261Y-87796829D01*
X137547249Y-87808240D01*
X137462184Y-87946243D01*
X137456037Y-87959424D01*
X137404862Y-88113710D01*
X137401995Y-88127086D01*
X137392328Y-88221438D01*
X137392000Y-88227855D01*
X137392000Y-88627885D01*
X136608500Y-88627885D01*
X136608500Y-88224600D01*
X136601123Y-88153499D01*
X136598238Y-88125692D01*
X136598237Y-88125688D01*
X136597526Y-88118834D01*
X136541550Y-87951054D01*
X136448478Y-87800652D01*
X136323303Y-87675695D01*
X136281638Y-87650012D01*
X136178968Y-87586725D01*
X136178966Y-87586724D01*
X136172738Y-87582885D01*
X136078121Y-87551502D01*
X136011389Y-87529368D01*
X136011387Y-87529368D01*
X136004861Y-87527203D01*
X135998025Y-87526503D01*
X135998022Y-87526502D01*
X135954969Y-87522091D01*
X135900400Y-87516500D01*
X134999600Y-87516500D01*
X134996354Y-87516837D01*
X134996350Y-87516837D01*
X134900692Y-87526762D01*
X134900688Y-87526763D01*
X134893834Y-87527474D01*
X134887298Y-87529655D01*
X134887296Y-87529655D01*
X134821034Y-87551762D01*
X134726054Y-87583450D01*
X134575652Y-87676522D01*
X134450695Y-87801697D01*
X134446855Y-87807927D01*
X134446854Y-87807928D01*
X134439118Y-87820479D01*
X134357885Y-87952262D01*
X134302203Y-88120139D01*
X134301502Y-88126977D01*
X134301502Y-88126979D01*
X134298801Y-88153342D01*
X134271960Y-88219070D01*
X134213845Y-88259852D01*
X134173457Y-88266500D01*
X131138856Y-88266500D01*
X131070735Y-88246498D01*
X131024242Y-88192842D01*
X131013529Y-88153504D01*
X131012526Y-88143834D01*
X131006939Y-88127086D01*
X130958868Y-87983002D01*
X130956550Y-87976054D01*
X130863478Y-87825652D01*
X130738303Y-87700695D01*
X130707494Y-87681704D01*
X130593968Y-87611725D01*
X130593966Y-87611724D01*
X130587738Y-87607885D01*
X130427254Y-87554655D01*
X130426389Y-87554368D01*
X130426387Y-87554368D01*
X130419861Y-87552203D01*
X130413025Y-87551503D01*
X130413022Y-87551502D01*
X130369969Y-87547091D01*
X130315400Y-87541500D01*
X128764600Y-87541500D01*
X128761354Y-87541837D01*
X128761350Y-87541837D01*
X128665692Y-87551762D01*
X128665688Y-87551763D01*
X128658834Y-87552474D01*
X128652298Y-87554655D01*
X128652296Y-87554655D01*
X128554796Y-87587184D01*
X128491054Y-87608450D01*
X128340652Y-87701522D01*
X128215695Y-87826697D01*
X128211855Y-87832927D01*
X128211854Y-87832928D01*
X128133881Y-87959424D01*
X128122885Y-87977262D01*
X128067203Y-88145139D01*
X128066503Y-88151975D01*
X128066502Y-88151978D01*
X128066346Y-88153499D01*
X128056500Y-88249600D01*
X128056500Y-89550400D01*
X128056837Y-89553646D01*
X128056837Y-89553650D01*
X128066487Y-89646651D01*
X128067474Y-89656166D01*
X128069655Y-89662702D01*
X128069655Y-89662704D01*
X128103818Y-89765103D01*
X128123450Y-89823946D01*
X128216522Y-89974348D01*
X128341697Y-90099305D01*
X128487340Y-90189081D01*
X128534832Y-90241852D01*
X128546256Y-90311924D01*
X128517982Y-90377048D01*
X128508195Y-90387510D01*
X128393865Y-90496576D01*
X128256246Y-90681542D01*
X128253830Y-90686293D01*
X128253828Y-90686297D01*
X128232524Y-90728199D01*
X128151760Y-90887051D01*
X128150178Y-90892145D01*
X128150177Y-90892148D01*
X128088115Y-91092020D01*
X128083393Y-91107227D01*
X128053102Y-91335774D01*
X124968500Y-91335774D01*
X124968500Y-85454500D01*
X124988502Y-85386379D01*
X125042158Y-85339886D01*
X125094500Y-85328500D01*
X147725500Y-85328500D01*
X147793621Y-85348502D01*
G37*
%TD.AperFunction*%
%TD*%
M02*
